<?xml version="1.0" standalone="no"?>
<!DOCTYPE svg PUBLIC "-//W3C//DTD SVG 20010904//EN"
 "http://www.w3.org/TR/2001/REC-SVG-20010904/DTD/svg10.dtd">
<svg version="1.0" xmlns="http://www.w3.org/2000/svg"
 width="351.000000pt" height="349.000000pt" viewBox="0 0 351.000000 349.000000"
 preserveAspectRatio="xMidYMid meet">

<g transform="translate(0.000000,349.000000) scale(0.100000,-0.100000)"
fill="#000000" stroke="none">
<path d="M69 3456 c-74 -51 -69 79 -69 -1715 l0 -1608 23 -43 c13 -25 37 -51
57 -61 33 -18 96 -19 1673 -19 1799 0 1666 -5 1721 60 14 18 26 41 26 53 0 16
-6 10 -20 -20 -11 -25 -33 -51 -52 -63 -33 -20 -46 -20 -1674 -20 l-1641 0
-34 23 c-19 12 -42 38 -51 57 -17 33 -18 132 -18 1643 0 1719 -2 1646 48 1690
11 11 38 25 59 33 32 11 34 13 13 14 -14 0 -42 -11 -61 -24z"/>
<path d="M3381 3471 c44 -14 67 -30 91 -63 l23 -33 5 -1615 5 -1615 0 1615 0
1615 -23 36 c-23 37 -75 70 -109 68 -12 0 -10 -3 8 -8z"/>
<path d="M1727 3230 c-38 -5 -98 -18 -135 -29 -57 -17 -76 -29 -127 -81 -65
-67 -124 -103 -158 -98 -31 4 -49 45 -42 96 7 48 -4 53 -58 26 -149 -77 -346
-310 -417 -497 -37 -94 -62 -199 -58 -239 l3 -29 65 58 c191 170 397 283 607
335 111 27 304 29 405 5 233 -57 452 -203 639 -425 96 -115 236 -323 299 -445
25 -48 48 -87 51 -87 23 0 25 300 3 406 -49 238 -172 439 -355 580 -32 25 -59
49 -59 54 0 18 74 33 140 27 124 -10 268 -88 399 -216 80 -77 80 -75 -4 34
-204 263 -504 451 -817 510 -102 19 -290 27 -381 15z"/>
<path d="M2819 2549 c29 -69 61 -192 77 -288 19 -115 18 -346 -1 -457 -33
-189 -117 -386 -232 -546 -70 -97 -223 -246 -325 -316 -165 -113 -380 -201
-593 -242 -184 -36 -182 -35 -70 -50 130 -17 336 -9 528 20 221 33 267 16 186
-66 -166 -170 -632 -225 -1247 -148 -68 9 -126 14 -128 11 -6 -6 158 -68 294
-111 776 -245 1409 -43 1756 559 43 76 115 238 116 260 0 6 -44 -31 -97 -83
-104 -102 -166 -148 -182 -137 -17 10 11 65 103 199 137 198 196 341 196 472
0 88 -34 273 -70 384 -58 179 -199 438 -299 550 l-31 35 19 -46z"/>
<path d="M1210 2505 c-200 -40 -340 -139 -486 -341 -67 -93 -100 -121 -128
-111 -24 9 -20 61 14 209 17 71 30 136 30 144 0 27 -27 14 -72 -33 -238 -256
-325 -716 -204 -1076 31 -93 94 -220 149 -302 58 -86 200 -223 288 -278 198
-123 481 -189 728 -171 l96 8 -92 13 c-121 18 -252 61 -385 127 -259 130 -468
318 -468 421 0 14 3 25 6 25 4 0 35 -27 70 -60 97 -90 239 -153 399 -176 l49
-7 -44 52 c-294 340 -392 629 -315 932 51 199 228 441 437 595 l60 44 -33 -1
c-19 0 -63 -7 -99 -14z"/>
<path d="M1383 2209 c-48 -23 -89 -67 -110 -116 -14 -35 -18 -133 -5 -133 5 0
14 22 21 50 24 94 86 156 195 196 l61 23 -60 0 c-42 1 -73 -5 -102 -20z"/>
<path d="M2090 2226 c0 -3 25 -12 55 -20 84 -25 160 -101 190 -189 23 -70 35
-70 35 -1 0 73 -56 156 -132 195 -33 17 -148 28 -148 15z"/>
<path d="M1535 2036 c-60 -26 -117 -128 -88 -157 7 -7 12 0 16 20 8 41 64 101
115 123 23 10 42 21 42 23 0 10 -56 4 -85 -9z"/>
<path d="M2010 2043 c0 -6 13 -13 29 -16 45 -9 98 -62 120 -120 l20 -52 0 43
c1 52 -19 93 -57 121 -32 23 -112 40 -112 24z"/>
<path d="M1686 1785 c-63 -58 -62 -161 3 -219 26 -23 26 -19 4 25 -25 48 -23
124 4 177 13 23 21 42 19 42 -2 0 -15 -11 -30 -25z"/>
<path d="M1925 1785 c34 -86 36 -99 25 -143 -6 -24 -18 -55 -27 -68 -22 -34 0
-30 30 6 49 58 44 152 -10 201 -23 21 -25 22 -18 4z"/>
<path d="M2161 1459 c-16 -59 -73 -115 -132 -134 l-44 -14 46 0 c85 -2 153 68
147 151 l-3 43 -14 -46z"/>
<path d="M1445 1468 c-10 -38 26 -113 67 -138 21 -13 49 -20 78 -19 l45 1 -35
10 c-67 19 -119 73 -140 148 l-7 25 -8 -27z"/>
<path d="M2341 1362 c-26 -105 -94 -176 -203 -213 -44 -14 -48 -18 -28 -24 36
-11 104 4 153 35 73 46 120 151 99 224 -7 27 -8 26 -21 -22z"/>
<path d="M1267 1394 c-13 -13 -8 -93 9 -132 20 -49 70 -100 119 -123 42 -20
135 -26 135 -9 0 6 -8 10 -17 10 -33 1 -108 41 -146 78 -45 43 -66 79 -81 140
-6 24 -15 40 -19 36z"/>
</g>
</svg>
